M48
INCH,TZ
T1C0.0157
T2C0.0197
T3C0.0394
%
G90
G05
T1
X31102Y-37008
X32283Y-37008
X32657Y-38406
X32835Y-41181
X33268Y-42520
X34252Y-39272
X34449Y-34646
X34567Y-40079
X34646Y-32874
X34646Y-45276
X34843Y-43701
X35276Y-40866
X35433Y-33661
X35630Y-38071
X35669Y-40866
X35906Y-46772
X36220Y-38524
X36220Y-45472
X36417Y-37598
X37697Y-45689
X38110Y-42224
X38189Y-32677
X39272Y-41339
X39272Y-41732
X39272Y-42126
X39370Y-30906
X39370Y-32087
X39469Y-40945
X39469Y-42520
X39685Y-37323
X39740Y-43921
X39862Y-40846
X39882Y-46457
X39961Y-42618
X40256Y-40846
X40315Y-39055
X40354Y-46063
X40650Y-40846
X41634Y-42421
X41654Y-39469
X41654Y-41575
X42382Y-41437
X42520Y-33268
X42894Y-43209
X43504Y-44882
X43701Y-33465
X44094Y-44291
X44291Y-45669
X44488Y-32677
X44587Y-42776
X45472Y-35433
X45669Y-41732
X45866Y-37402
X46457Y-36811
X46594Y-40886
X46850Y-41732
T2
X31166Y-42004
X31398Y-42323
X31485Y-41773
X31716Y-42091
X31803Y-41542
X32035Y-41860
T3
X41535Y-44587
X42535Y-44587
T0
M30
