G04 #@! TF.GenerationSoftware,KiCad,Pcbnew,(5.1.10)-1*
G04 #@! TF.CreationDate,2022-01-26T20:28:20-05:00*
G04 #@! TF.ProjectId,FestivalNecklace,46657374-6976-4616-9c4e-65636b6c6163,rev?*
G04 #@! TF.SameCoordinates,Original*
G04 #@! TF.FileFunction,Soldermask,Top*
G04 #@! TF.FilePolarity,Negative*
%FSLAX46Y46*%
G04 Gerber Fmt 4.6, Leading zero omitted, Abs format (unit mm)*
G04 Created by KiCad (PCBNEW (5.1.10)-1) date 2022-01-26 20:28:20*
%MOMM*%
%LPD*%
G01*
G04 APERTURE LIST*
%ADD10R,2.006600X0.660400*%
%ADD11R,1.100000X1.100000*%
%ADD12R,1.041400X0.381000*%
%ADD13O,1.700000X1.700000*%
%ADD14R,1.700000X1.700000*%
%ADD15R,0.558800X1.320800*%
%ADD16C,0.150000*%
%ADD17R,0.900000X1.500000*%
%ADD18R,2.600000X2.600000*%
%ADD19R,2.785000X1.400000*%
%ADD20R,0.900000X0.900000*%
%ADD21R,1.500000X1.500000*%
G04 APERTURE END LIST*
D10*
X102000000Y-106925000D03*
X102000000Y-105575000D03*
D11*
X110850000Y-101750000D03*
X113650000Y-101750000D03*
G36*
G01*
X107200000Y-110225000D02*
X107200000Y-109275000D01*
G75*
G02*
X107450000Y-109025000I250000J0D01*
G01*
X107950000Y-109025000D01*
G75*
G02*
X108200000Y-109275000I0J-250000D01*
G01*
X108200000Y-110225000D01*
G75*
G02*
X107950000Y-110475000I-250000J0D01*
G01*
X107450000Y-110475000D01*
G75*
G02*
X107200000Y-110225000I0J250000D01*
G01*
G37*
G36*
G01*
X105300000Y-110225000D02*
X105300000Y-109275000D01*
G75*
G02*
X105550000Y-109025000I250000J0D01*
G01*
X106050000Y-109025000D01*
G75*
G02*
X106300000Y-109275000I0J-250000D01*
G01*
X106300000Y-110225000D01*
G75*
G02*
X106050000Y-110475000I-250000J0D01*
G01*
X105550000Y-110475000D01*
G75*
G02*
X105300000Y-110225000I0J250000D01*
G01*
G37*
G36*
G01*
X106300000Y-101275000D02*
X106300000Y-102225000D01*
G75*
G02*
X106050000Y-102475000I-250000J0D01*
G01*
X105550000Y-102475000D01*
G75*
G02*
X105300000Y-102225000I0J250000D01*
G01*
X105300000Y-101275000D01*
G75*
G02*
X105550000Y-101025000I250000J0D01*
G01*
X106050000Y-101025000D01*
G75*
G02*
X106300000Y-101275000I0J-250000D01*
G01*
G37*
G36*
G01*
X108200000Y-101275000D02*
X108200000Y-102225000D01*
G75*
G02*
X107950000Y-102475000I-250000J0D01*
G01*
X107450000Y-102475000D01*
G75*
G02*
X107200000Y-102225000I0J250000D01*
G01*
X107200000Y-101275000D01*
G75*
G02*
X107450000Y-101025000I250000J0D01*
G01*
X107950000Y-101025000D01*
G75*
G02*
X108200000Y-101275000I0J-250000D01*
G01*
G37*
G36*
G01*
X112575000Y-104250000D02*
X112575000Y-103750000D01*
G75*
G02*
X112800000Y-103525000I225000J0D01*
G01*
X113250000Y-103525000D01*
G75*
G02*
X113475000Y-103750000I0J-225000D01*
G01*
X113475000Y-104250000D01*
G75*
G02*
X113250000Y-104475000I-225000J0D01*
G01*
X112800000Y-104475000D01*
G75*
G02*
X112575000Y-104250000I0J225000D01*
G01*
G37*
G36*
G01*
X111025000Y-104250000D02*
X111025000Y-103750000D01*
G75*
G02*
X111250000Y-103525000I225000J0D01*
G01*
X111700000Y-103525000D01*
G75*
G02*
X111925000Y-103750000I0J-225000D01*
G01*
X111925000Y-104250000D01*
G75*
G02*
X111700000Y-104475000I-225000J0D01*
G01*
X111250000Y-104475000D01*
G75*
G02*
X111025000Y-104250000I0J225000D01*
G01*
G37*
D12*
X104629100Y-105274640D03*
X104629100Y-105924880D03*
X104629100Y-106575120D03*
X104629100Y-107225360D03*
X108870900Y-107225360D03*
X108870900Y-106575120D03*
X108870900Y-105924880D03*
X108870900Y-105274640D03*
G36*
G01*
X91525000Y-94275000D02*
X90975000Y-94275000D01*
G75*
G02*
X90775000Y-94075000I0J200000D01*
G01*
X90775000Y-93675000D01*
G75*
G02*
X90975000Y-93475000I200000J0D01*
G01*
X91525000Y-93475000D01*
G75*
G02*
X91725000Y-93675000I0J-200000D01*
G01*
X91725000Y-94075000D01*
G75*
G02*
X91525000Y-94275000I-200000J0D01*
G01*
G37*
G36*
G01*
X91525000Y-95925000D02*
X90975000Y-95925000D01*
G75*
G02*
X90775000Y-95725000I0J200000D01*
G01*
X90775000Y-95325000D01*
G75*
G02*
X90975000Y-95125000I200000J0D01*
G01*
X91525000Y-95125000D01*
G75*
G02*
X91725000Y-95325000I0J-200000D01*
G01*
X91725000Y-95725000D01*
G75*
G02*
X91525000Y-95925000I-200000J0D01*
G01*
G37*
G36*
G01*
X113525000Y-106325000D02*
X112975000Y-106325000D01*
G75*
G02*
X112775000Y-106125000I0J200000D01*
G01*
X112775000Y-105725000D01*
G75*
G02*
X112975000Y-105525000I200000J0D01*
G01*
X113525000Y-105525000D01*
G75*
G02*
X113725000Y-105725000I0J-200000D01*
G01*
X113725000Y-106125000D01*
G75*
G02*
X113525000Y-106325000I-200000J0D01*
G01*
G37*
G36*
G01*
X113525000Y-107975000D02*
X112975000Y-107975000D01*
G75*
G02*
X112775000Y-107775000I0J200000D01*
G01*
X112775000Y-107375000D01*
G75*
G02*
X112975000Y-107175000I200000J0D01*
G01*
X113525000Y-107175000D01*
G75*
G02*
X113725000Y-107375000I0J-200000D01*
G01*
X113725000Y-107775000D01*
G75*
G02*
X113525000Y-107975000I-200000J0D01*
G01*
G37*
G36*
G01*
X89275000Y-94275000D02*
X88725000Y-94275000D01*
G75*
G02*
X88525000Y-94075000I0J200000D01*
G01*
X88525000Y-93675000D01*
G75*
G02*
X88725000Y-93475000I200000J0D01*
G01*
X89275000Y-93475000D01*
G75*
G02*
X89475000Y-93675000I0J-200000D01*
G01*
X89475000Y-94075000D01*
G75*
G02*
X89275000Y-94275000I-200000J0D01*
G01*
G37*
G36*
G01*
X89275000Y-95925000D02*
X88725000Y-95925000D01*
G75*
G02*
X88525000Y-95725000I0J200000D01*
G01*
X88525000Y-95325000D01*
G75*
G02*
X88725000Y-95125000I200000J0D01*
G01*
X89275000Y-95125000D01*
G75*
G02*
X89475000Y-95325000I0J-200000D01*
G01*
X89475000Y-95725000D01*
G75*
G02*
X89275000Y-95925000I-200000J0D01*
G01*
G37*
G36*
G01*
X111525000Y-106325000D02*
X110975000Y-106325000D01*
G75*
G02*
X110775000Y-106125000I0J200000D01*
G01*
X110775000Y-105725000D01*
G75*
G02*
X110975000Y-105525000I200000J0D01*
G01*
X111525000Y-105525000D01*
G75*
G02*
X111725000Y-105725000I0J-200000D01*
G01*
X111725000Y-106125000D01*
G75*
G02*
X111525000Y-106325000I-200000J0D01*
G01*
G37*
G36*
G01*
X111525000Y-107975000D02*
X110975000Y-107975000D01*
G75*
G02*
X110775000Y-107775000I0J200000D01*
G01*
X110775000Y-107375000D01*
G75*
G02*
X110975000Y-107175000I200000J0D01*
G01*
X111525000Y-107175000D01*
G75*
G02*
X111725000Y-107375000I0J-200000D01*
G01*
X111725000Y-107775000D01*
G75*
G02*
X111525000Y-107975000I-200000J0D01*
G01*
G37*
D13*
X108040000Y-113250000D03*
D14*
X105500000Y-113250000D03*
D15*
X99060200Y-115621600D03*
X100000000Y-115621600D03*
X100939800Y-115621600D03*
X100939800Y-112878400D03*
X99060200Y-112878400D03*
D16*
G36*
X109594502Y-119173514D02*
G01*
X109872617Y-120029465D01*
X108446032Y-120492990D01*
X108167917Y-119637039D01*
X109594502Y-119173514D01*
G37*
G36*
X108574745Y-116035027D02*
G01*
X108852860Y-116890978D01*
X107426275Y-117354503D01*
X107148160Y-116498552D01*
X108574745Y-116035027D01*
G37*
G36*
X103914568Y-117549210D02*
G01*
X104192683Y-118405161D01*
X102766098Y-118868686D01*
X102487983Y-118012735D01*
X103914568Y-117549210D01*
G37*
G36*
X104934325Y-120687697D02*
G01*
X105212440Y-121543648D01*
X103785855Y-122007173D01*
X103507740Y-121151222D01*
X104934325Y-120687697D01*
G37*
G36*
X119032033Y-109872188D02*
G01*
X119760149Y-110401195D01*
X118878471Y-111614720D01*
X118150355Y-111085713D01*
X119032033Y-109872188D01*
G37*
G36*
X116362277Y-107932497D02*
G01*
X117090393Y-108461504D01*
X116208715Y-109675029D01*
X115480599Y-109146022D01*
X116362277Y-107932497D01*
G37*
G36*
X113482129Y-111896680D02*
G01*
X114210245Y-112425687D01*
X113328567Y-113639212D01*
X112600451Y-113110205D01*
X113482129Y-111896680D01*
G37*
G36*
X116151885Y-113836371D02*
G01*
X116880001Y-114365378D01*
X115998323Y-115578903D01*
X115270207Y-115049896D01*
X116151885Y-113836371D01*
G37*
D17*
X121650000Y-97550000D03*
X118350000Y-97550000D03*
X118350000Y-102450000D03*
X121650000Y-102450000D03*
D16*
G36*
X115270207Y-84950104D02*
G01*
X115998323Y-84421097D01*
X116880001Y-85634622D01*
X116151885Y-86163629D01*
X115270207Y-84950104D01*
G37*
G36*
X112600451Y-86889795D02*
G01*
X113328567Y-86360788D01*
X114210245Y-87574313D01*
X113482129Y-88103320D01*
X112600451Y-86889795D01*
G37*
G36*
X115480599Y-90853978D02*
G01*
X116208715Y-90324971D01*
X117090393Y-91538496D01*
X116362277Y-92067503D01*
X115480599Y-90853978D01*
G37*
G36*
X118150355Y-88914287D02*
G01*
X118878471Y-88385280D01*
X119760149Y-89598805D01*
X119032033Y-90127812D01*
X118150355Y-88914287D01*
G37*
G36*
X103507740Y-78848778D02*
G01*
X103785855Y-77992827D01*
X105212440Y-78456352D01*
X104934325Y-79312303D01*
X103507740Y-78848778D01*
G37*
G36*
X102487983Y-81987265D02*
G01*
X102766098Y-81131314D01*
X104192683Y-81594839D01*
X103914568Y-82450790D01*
X102487983Y-81987265D01*
G37*
G36*
X107148160Y-83501448D02*
G01*
X107426275Y-82645497D01*
X108852860Y-83109022D01*
X108574745Y-83964973D01*
X107148160Y-83501448D01*
G37*
G36*
X108167917Y-80362961D02*
G01*
X108446032Y-79507010D01*
X109872617Y-79970535D01*
X109594502Y-80826486D01*
X108167917Y-80362961D01*
G37*
G36*
X90405498Y-80826486D02*
G01*
X90127383Y-79970535D01*
X91553968Y-79507010D01*
X91832083Y-80362961D01*
X90405498Y-80826486D01*
G37*
G36*
X91425255Y-83964973D02*
G01*
X91147140Y-83109022D01*
X92573725Y-82645497D01*
X92851840Y-83501448D01*
X91425255Y-83964973D01*
G37*
G36*
X96085432Y-82450790D02*
G01*
X95807317Y-81594839D01*
X97233902Y-81131314D01*
X97512017Y-81987265D01*
X96085432Y-82450790D01*
G37*
G36*
X95065675Y-79312303D02*
G01*
X94787560Y-78456352D01*
X96214145Y-77992827D01*
X96492260Y-78848778D01*
X95065675Y-79312303D01*
G37*
G36*
X80967967Y-90127812D02*
G01*
X80239851Y-89598805D01*
X81121529Y-88385280D01*
X81849645Y-88914287D01*
X80967967Y-90127812D01*
G37*
G36*
X83637723Y-92067503D02*
G01*
X82909607Y-91538496D01*
X83791285Y-90324971D01*
X84519401Y-90853978D01*
X83637723Y-92067503D01*
G37*
G36*
X86517871Y-88103320D02*
G01*
X85789755Y-87574313D01*
X86671433Y-86360788D01*
X87399549Y-86889795D01*
X86517871Y-88103320D01*
G37*
G36*
X83848115Y-86163629D02*
G01*
X83119999Y-85634622D01*
X84001677Y-84421097D01*
X84729793Y-84950104D01*
X83848115Y-86163629D01*
G37*
D17*
X78350000Y-102450000D03*
X81650000Y-102450000D03*
X81650000Y-97550000D03*
X78350000Y-97550000D03*
D16*
G36*
X84729793Y-115049896D02*
G01*
X84001677Y-115578903D01*
X83119999Y-114365378D01*
X83848115Y-113836371D01*
X84729793Y-115049896D01*
G37*
G36*
X87399549Y-113110205D02*
G01*
X86671433Y-113639212D01*
X85789755Y-112425687D01*
X86517871Y-111896680D01*
X87399549Y-113110205D01*
G37*
G36*
X84519401Y-109146022D02*
G01*
X83791285Y-109675029D01*
X82909607Y-108461504D01*
X83637723Y-107932497D01*
X84519401Y-109146022D01*
G37*
G36*
X81849645Y-111085713D02*
G01*
X81121529Y-111614720D01*
X80239851Y-110401195D01*
X80967967Y-109872188D01*
X81849645Y-111085713D01*
G37*
G36*
X96492260Y-121151222D02*
G01*
X96214145Y-122007173D01*
X94787560Y-121543648D01*
X95065675Y-120687697D01*
X96492260Y-121151222D01*
G37*
G36*
X97512017Y-118012735D02*
G01*
X97233902Y-118868686D01*
X95807317Y-118405161D01*
X96085432Y-117549210D01*
X97512017Y-118012735D01*
G37*
G36*
X92851840Y-116498552D02*
G01*
X92573725Y-117354503D01*
X91147140Y-116890978D01*
X91425255Y-116035027D01*
X92851840Y-116498552D01*
G37*
G36*
X91832083Y-119637039D02*
G01*
X91553968Y-120492990D01*
X90127383Y-120029465D01*
X90405498Y-119173514D01*
X91832083Y-119637039D01*
G37*
D18*
X90000000Y-99750000D03*
G36*
G01*
X91562500Y-98625000D02*
X92287500Y-98625000D01*
G75*
G02*
X92350000Y-98687500I0J-62500D01*
G01*
X92350000Y-98812500D01*
G75*
G02*
X92287500Y-98875000I-62500J0D01*
G01*
X91562500Y-98875000D01*
G75*
G02*
X91500000Y-98812500I0J62500D01*
G01*
X91500000Y-98687500D01*
G75*
G02*
X91562500Y-98625000I62500J0D01*
G01*
G37*
G36*
G01*
X91562500Y-99125000D02*
X92287500Y-99125000D01*
G75*
G02*
X92350000Y-99187500I0J-62500D01*
G01*
X92350000Y-99312500D01*
G75*
G02*
X92287500Y-99375000I-62500J0D01*
G01*
X91562500Y-99375000D01*
G75*
G02*
X91500000Y-99312500I0J62500D01*
G01*
X91500000Y-99187500D01*
G75*
G02*
X91562500Y-99125000I62500J0D01*
G01*
G37*
G36*
G01*
X91562500Y-99625000D02*
X92287500Y-99625000D01*
G75*
G02*
X92350000Y-99687500I0J-62500D01*
G01*
X92350000Y-99812500D01*
G75*
G02*
X92287500Y-99875000I-62500J0D01*
G01*
X91562500Y-99875000D01*
G75*
G02*
X91500000Y-99812500I0J62500D01*
G01*
X91500000Y-99687500D01*
G75*
G02*
X91562500Y-99625000I62500J0D01*
G01*
G37*
G36*
G01*
X91562500Y-100125000D02*
X92287500Y-100125000D01*
G75*
G02*
X92350000Y-100187500I0J-62500D01*
G01*
X92350000Y-100312500D01*
G75*
G02*
X92287500Y-100375000I-62500J0D01*
G01*
X91562500Y-100375000D01*
G75*
G02*
X91500000Y-100312500I0J62500D01*
G01*
X91500000Y-100187500D01*
G75*
G02*
X91562500Y-100125000I62500J0D01*
G01*
G37*
G36*
G01*
X91562500Y-100625000D02*
X92287500Y-100625000D01*
G75*
G02*
X92350000Y-100687500I0J-62500D01*
G01*
X92350000Y-100812500D01*
G75*
G02*
X92287500Y-100875000I-62500J0D01*
G01*
X91562500Y-100875000D01*
G75*
G02*
X91500000Y-100812500I0J62500D01*
G01*
X91500000Y-100687500D01*
G75*
G02*
X91562500Y-100625000I62500J0D01*
G01*
G37*
G36*
G01*
X90937500Y-101250000D02*
X91062500Y-101250000D01*
G75*
G02*
X91125000Y-101312500I0J-62500D01*
G01*
X91125000Y-102037500D01*
G75*
G02*
X91062500Y-102100000I-62500J0D01*
G01*
X90937500Y-102100000D01*
G75*
G02*
X90875000Y-102037500I0J62500D01*
G01*
X90875000Y-101312500D01*
G75*
G02*
X90937500Y-101250000I62500J0D01*
G01*
G37*
G36*
G01*
X90437500Y-101250000D02*
X90562500Y-101250000D01*
G75*
G02*
X90625000Y-101312500I0J-62500D01*
G01*
X90625000Y-102037500D01*
G75*
G02*
X90562500Y-102100000I-62500J0D01*
G01*
X90437500Y-102100000D01*
G75*
G02*
X90375000Y-102037500I0J62500D01*
G01*
X90375000Y-101312500D01*
G75*
G02*
X90437500Y-101250000I62500J0D01*
G01*
G37*
G36*
G01*
X89937500Y-101250000D02*
X90062500Y-101250000D01*
G75*
G02*
X90125000Y-101312500I0J-62500D01*
G01*
X90125000Y-102037500D01*
G75*
G02*
X90062500Y-102100000I-62500J0D01*
G01*
X89937500Y-102100000D01*
G75*
G02*
X89875000Y-102037500I0J62500D01*
G01*
X89875000Y-101312500D01*
G75*
G02*
X89937500Y-101250000I62500J0D01*
G01*
G37*
G36*
G01*
X89437500Y-101250000D02*
X89562500Y-101250000D01*
G75*
G02*
X89625000Y-101312500I0J-62500D01*
G01*
X89625000Y-102037500D01*
G75*
G02*
X89562500Y-102100000I-62500J0D01*
G01*
X89437500Y-102100000D01*
G75*
G02*
X89375000Y-102037500I0J62500D01*
G01*
X89375000Y-101312500D01*
G75*
G02*
X89437500Y-101250000I62500J0D01*
G01*
G37*
G36*
G01*
X88937500Y-101250000D02*
X89062500Y-101250000D01*
G75*
G02*
X89125000Y-101312500I0J-62500D01*
G01*
X89125000Y-102037500D01*
G75*
G02*
X89062500Y-102100000I-62500J0D01*
G01*
X88937500Y-102100000D01*
G75*
G02*
X88875000Y-102037500I0J62500D01*
G01*
X88875000Y-101312500D01*
G75*
G02*
X88937500Y-101250000I62500J0D01*
G01*
G37*
G36*
G01*
X87712500Y-100625000D02*
X88437500Y-100625000D01*
G75*
G02*
X88500000Y-100687500I0J-62500D01*
G01*
X88500000Y-100812500D01*
G75*
G02*
X88437500Y-100875000I-62500J0D01*
G01*
X87712500Y-100875000D01*
G75*
G02*
X87650000Y-100812500I0J62500D01*
G01*
X87650000Y-100687500D01*
G75*
G02*
X87712500Y-100625000I62500J0D01*
G01*
G37*
G36*
G01*
X87712500Y-100125000D02*
X88437500Y-100125000D01*
G75*
G02*
X88500000Y-100187500I0J-62500D01*
G01*
X88500000Y-100312500D01*
G75*
G02*
X88437500Y-100375000I-62500J0D01*
G01*
X87712500Y-100375000D01*
G75*
G02*
X87650000Y-100312500I0J62500D01*
G01*
X87650000Y-100187500D01*
G75*
G02*
X87712500Y-100125000I62500J0D01*
G01*
G37*
G36*
G01*
X87712500Y-99625000D02*
X88437500Y-99625000D01*
G75*
G02*
X88500000Y-99687500I0J-62500D01*
G01*
X88500000Y-99812500D01*
G75*
G02*
X88437500Y-99875000I-62500J0D01*
G01*
X87712500Y-99875000D01*
G75*
G02*
X87650000Y-99812500I0J62500D01*
G01*
X87650000Y-99687500D01*
G75*
G02*
X87712500Y-99625000I62500J0D01*
G01*
G37*
G36*
G01*
X87712500Y-99125000D02*
X88437500Y-99125000D01*
G75*
G02*
X88500000Y-99187500I0J-62500D01*
G01*
X88500000Y-99312500D01*
G75*
G02*
X88437500Y-99375000I-62500J0D01*
G01*
X87712500Y-99375000D01*
G75*
G02*
X87650000Y-99312500I0J62500D01*
G01*
X87650000Y-99187500D01*
G75*
G02*
X87712500Y-99125000I62500J0D01*
G01*
G37*
G36*
G01*
X87712500Y-98625000D02*
X88437500Y-98625000D01*
G75*
G02*
X88500000Y-98687500I0J-62500D01*
G01*
X88500000Y-98812500D01*
G75*
G02*
X88437500Y-98875000I-62500J0D01*
G01*
X87712500Y-98875000D01*
G75*
G02*
X87650000Y-98812500I0J62500D01*
G01*
X87650000Y-98687500D01*
G75*
G02*
X87712500Y-98625000I62500J0D01*
G01*
G37*
G36*
G01*
X88937500Y-97400000D02*
X89062500Y-97400000D01*
G75*
G02*
X89125000Y-97462500I0J-62500D01*
G01*
X89125000Y-98187500D01*
G75*
G02*
X89062500Y-98250000I-62500J0D01*
G01*
X88937500Y-98250000D01*
G75*
G02*
X88875000Y-98187500I0J62500D01*
G01*
X88875000Y-97462500D01*
G75*
G02*
X88937500Y-97400000I62500J0D01*
G01*
G37*
G36*
G01*
X89437500Y-97400000D02*
X89562500Y-97400000D01*
G75*
G02*
X89625000Y-97462500I0J-62500D01*
G01*
X89625000Y-98187500D01*
G75*
G02*
X89562500Y-98250000I-62500J0D01*
G01*
X89437500Y-98250000D01*
G75*
G02*
X89375000Y-98187500I0J62500D01*
G01*
X89375000Y-97462500D01*
G75*
G02*
X89437500Y-97400000I62500J0D01*
G01*
G37*
G36*
G01*
X89937500Y-97400000D02*
X90062500Y-97400000D01*
G75*
G02*
X90125000Y-97462500I0J-62500D01*
G01*
X90125000Y-98187500D01*
G75*
G02*
X90062500Y-98250000I-62500J0D01*
G01*
X89937500Y-98250000D01*
G75*
G02*
X89875000Y-98187500I0J62500D01*
G01*
X89875000Y-97462500D01*
G75*
G02*
X89937500Y-97400000I62500J0D01*
G01*
G37*
G36*
G01*
X90437500Y-97400000D02*
X90562500Y-97400000D01*
G75*
G02*
X90625000Y-97462500I0J-62500D01*
G01*
X90625000Y-98187500D01*
G75*
G02*
X90562500Y-98250000I-62500J0D01*
G01*
X90437500Y-98250000D01*
G75*
G02*
X90375000Y-98187500I0J62500D01*
G01*
X90375000Y-97462500D01*
G75*
G02*
X90437500Y-97400000I62500J0D01*
G01*
G37*
G36*
G01*
X90937500Y-97400000D02*
X91062500Y-97400000D01*
G75*
G02*
X91125000Y-97462500I0J-62500D01*
G01*
X91125000Y-98187500D01*
G75*
G02*
X91062500Y-98250000I-62500J0D01*
G01*
X90937500Y-98250000D01*
G75*
G02*
X90875000Y-98187500I0J62500D01*
G01*
X90875000Y-97462500D01*
G75*
G02*
X90937500Y-97400000I62500J0D01*
G01*
G37*
D19*
X97592500Y-102250000D03*
X97592500Y-97750000D03*
X102407500Y-97750000D03*
X102407500Y-102250000D03*
G36*
G01*
X96025000Y-113650000D02*
X95475000Y-113650000D01*
G75*
G02*
X95275000Y-113450000I0J200000D01*
G01*
X95275000Y-113050000D01*
G75*
G02*
X95475000Y-112850000I200000J0D01*
G01*
X96025000Y-112850000D01*
G75*
G02*
X96225000Y-113050000I0J-200000D01*
G01*
X96225000Y-113450000D01*
G75*
G02*
X96025000Y-113650000I-200000J0D01*
G01*
G37*
G36*
G01*
X96025000Y-115300000D02*
X95475000Y-115300000D01*
G75*
G02*
X95275000Y-115100000I0J200000D01*
G01*
X95275000Y-114700000D01*
G75*
G02*
X95475000Y-114500000I200000J0D01*
G01*
X96025000Y-114500000D01*
G75*
G02*
X96225000Y-114700000I0J-200000D01*
G01*
X96225000Y-115100000D01*
G75*
G02*
X96025000Y-115300000I-200000J0D01*
G01*
G37*
G36*
G01*
X100425000Y-120275000D02*
X100425000Y-119725000D01*
G75*
G02*
X100625000Y-119525000I200000J0D01*
G01*
X101025000Y-119525000D01*
G75*
G02*
X101225000Y-119725000I0J-200000D01*
G01*
X101225000Y-120275000D01*
G75*
G02*
X101025000Y-120475000I-200000J0D01*
G01*
X100625000Y-120475000D01*
G75*
G02*
X100425000Y-120275000I0J200000D01*
G01*
G37*
G36*
G01*
X98775000Y-120275000D02*
X98775000Y-119725000D01*
G75*
G02*
X98975000Y-119525000I200000J0D01*
G01*
X99375000Y-119525000D01*
G75*
G02*
X99575000Y-119725000I0J-200000D01*
G01*
X99575000Y-120275000D01*
G75*
G02*
X99375000Y-120475000I-200000J0D01*
G01*
X98975000Y-120475000D01*
G75*
G02*
X98775000Y-120275000I0J200000D01*
G01*
G37*
G36*
G01*
X97725000Y-106675000D02*
X98275000Y-106675000D01*
G75*
G02*
X98475000Y-106875000I0J-200000D01*
G01*
X98475000Y-107275000D01*
G75*
G02*
X98275000Y-107475000I-200000J0D01*
G01*
X97725000Y-107475000D01*
G75*
G02*
X97525000Y-107275000I0J200000D01*
G01*
X97525000Y-106875000D01*
G75*
G02*
X97725000Y-106675000I200000J0D01*
G01*
G37*
G36*
G01*
X97725000Y-105025000D02*
X98275000Y-105025000D01*
G75*
G02*
X98475000Y-105225000I0J-200000D01*
G01*
X98475000Y-105625000D01*
G75*
G02*
X98275000Y-105825000I-200000J0D01*
G01*
X97725000Y-105825000D01*
G75*
G02*
X97525000Y-105625000I0J200000D01*
G01*
X97525000Y-105225000D01*
G75*
G02*
X97725000Y-105025000I200000J0D01*
G01*
G37*
G36*
G01*
X99575000Y-93225000D02*
X99575000Y-93775000D01*
G75*
G02*
X99375000Y-93975000I-200000J0D01*
G01*
X98975000Y-93975000D01*
G75*
G02*
X98775000Y-93775000I0J200000D01*
G01*
X98775000Y-93225000D01*
G75*
G02*
X98975000Y-93025000I200000J0D01*
G01*
X99375000Y-93025000D01*
G75*
G02*
X99575000Y-93225000I0J-200000D01*
G01*
G37*
G36*
G01*
X101225000Y-93225000D02*
X101225000Y-93775000D01*
G75*
G02*
X101025000Y-93975000I-200000J0D01*
G01*
X100625000Y-93975000D01*
G75*
G02*
X100425000Y-93775000I0J200000D01*
G01*
X100425000Y-93225000D01*
G75*
G02*
X100625000Y-93025000I200000J0D01*
G01*
X101025000Y-93025000D01*
G75*
G02*
X101225000Y-93225000I0J-200000D01*
G01*
G37*
G36*
G01*
X81030058Y-105859245D02*
X81030058Y-105859245D01*
G75*
G02*
X80436417Y-105765222I-249809J343832D01*
G01*
X80436417Y-105765222D01*
G75*
G02*
X80530440Y-105171581I343832J249809D01*
G01*
X80530440Y-105171581D01*
G75*
G02*
X81124081Y-105265604I249809J-343832D01*
G01*
X81124081Y-105265604D01*
G75*
G02*
X81030058Y-105859245I-343832J-249809D01*
G01*
G37*
G36*
G01*
X81617843Y-106668261D02*
X81617843Y-106668261D01*
G75*
G02*
X81024202Y-106574238I-249809J343832D01*
G01*
X81024202Y-106574238D01*
G75*
G02*
X81118225Y-105980597I343832J249809D01*
G01*
X81118225Y-105980597D01*
G75*
G02*
X81711866Y-106074620I249809J-343832D01*
G01*
X81711866Y-106074620D01*
G75*
G02*
X81617843Y-106668261I-343832J-249809D01*
G01*
G37*
G36*
G01*
X80221041Y-106447030D02*
X80221041Y-106447030D01*
G75*
G02*
X79627400Y-106353007I-249809J343832D01*
G01*
X79627400Y-106353007D01*
G75*
G02*
X79721423Y-105759366I343832J249809D01*
G01*
X79721423Y-105759366D01*
G75*
G02*
X80315064Y-105853389I249809J-343832D01*
G01*
X80315064Y-105853389D01*
G75*
G02*
X80221041Y-106447030I-343832J-249809D01*
G01*
G37*
G36*
G01*
X80808826Y-107256047D02*
X80808826Y-107256047D01*
G75*
G02*
X80215185Y-107162024I-249809J343832D01*
G01*
X80215185Y-107162024D01*
G75*
G02*
X80309208Y-106568383I343832J249809D01*
G01*
X80309208Y-106568383D01*
G75*
G02*
X80902849Y-106662406I249809J-343832D01*
G01*
X80902849Y-106662406D01*
G75*
G02*
X80808826Y-107256047I-343832J-249809D01*
G01*
G37*
G36*
G01*
X79412024Y-107034815D02*
X79412024Y-107034815D01*
G75*
G02*
X78818383Y-106940792I-249809J343832D01*
G01*
X78818383Y-106940792D01*
G75*
G02*
X78912406Y-106347151I343832J249809D01*
G01*
X78912406Y-106347151D01*
G75*
G02*
X79506047Y-106441174I249809J-343832D01*
G01*
X79506047Y-106441174D01*
G75*
G02*
X79412024Y-107034815I-343832J-249809D01*
G01*
G37*
D16*
G36*
X80343641Y-107594023D02*
G01*
X79655977Y-108093641D01*
X79156359Y-107405977D01*
X79844023Y-106906359D01*
X80343641Y-107594023D01*
G37*
D20*
X100000000Y-122100000D03*
D21*
X101750000Y-122750000D03*
X98250000Y-122750000D03*
G36*
G01*
X100625000Y-110575000D02*
X100625000Y-109425000D01*
G75*
G02*
X100875000Y-109175000I250000J0D01*
G01*
X101975000Y-109175000D01*
G75*
G02*
X102225000Y-109425000I0J-250000D01*
G01*
X102225000Y-110575000D01*
G75*
G02*
X101975000Y-110825000I-250000J0D01*
G01*
X100875000Y-110825000D01*
G75*
G02*
X100625000Y-110575000I0J250000D01*
G01*
G37*
G36*
G01*
X97775000Y-110575000D02*
X97775000Y-109425000D01*
G75*
G02*
X98025000Y-109175000I250000J0D01*
G01*
X99125000Y-109175000D01*
G75*
G02*
X99375000Y-109425000I0J-250000D01*
G01*
X99375000Y-110575000D01*
G75*
G02*
X99125000Y-110825000I-250000J0D01*
G01*
X98025000Y-110825000D01*
G75*
G02*
X97775000Y-110575000I0J250000D01*
G01*
G37*
G36*
G01*
X100775000Y-90625000D02*
X100775000Y-89375000D01*
G75*
G02*
X101025000Y-89125000I250000J0D01*
G01*
X101775000Y-89125000D01*
G75*
G02*
X102025000Y-89375000I0J-250000D01*
G01*
X102025000Y-90625000D01*
G75*
G02*
X101775000Y-90875000I-250000J0D01*
G01*
X101025000Y-90875000D01*
G75*
G02*
X100775000Y-90625000I0J250000D01*
G01*
G37*
G36*
G01*
X97975000Y-90625000D02*
X97975000Y-89375000D01*
G75*
G02*
X98225000Y-89125000I250000J0D01*
G01*
X98975000Y-89125000D01*
G75*
G02*
X99225000Y-89375000I0J-250000D01*
G01*
X99225000Y-90625000D01*
G75*
G02*
X98975000Y-90875000I-250000J0D01*
G01*
X98225000Y-90875000D01*
G75*
G02*
X97975000Y-90625000I0J250000D01*
G01*
G37*
M02*
