G04 #@! TF.GenerationSoftware,KiCad,Pcbnew,(5.1.10)-1*
G04 #@! TF.CreationDate,2022-01-26T20:28:20-05:00*
G04 #@! TF.ProjectId,FestivalNecklace,46657374-6976-4616-9c4e-65636b6c6163,rev?*
G04 #@! TF.SameCoordinates,Original*
G04 #@! TF.FileFunction,Soldermask,Bot*
G04 #@! TF.FilePolarity,Negative*
%FSLAX46Y46*%
G04 Gerber Fmt 4.6, Leading zero omitted, Abs format (unit mm)*
G04 Created by KiCad (PCBNEW (5.1.10)-1) date 2022-01-26 20:28:20*
%MOMM*%
%LPD*%
G01*
G04 APERTURE LIST*
%ADD10O,1.700000X1.700000*%
%ADD11R,1.700000X1.700000*%
%ADD12R,1.050000X1.400000*%
%ADD13C,0.150000*%
%ADD14R,0.400000X1.350000*%
%ADD15R,2.100000X1.600000*%
%ADD16R,1.900000X1.900000*%
%ADD17R,1.800000X1.900000*%
G04 APERTURE END LIST*
D10*
X108040000Y-113250000D03*
D11*
X105500000Y-113250000D03*
D12*
X78275000Y-101800000D03*
X79725000Y-101800000D03*
X79725000Y-98200000D03*
X78275000Y-98200000D03*
G36*
G01*
X81030058Y-105859245D02*
X81030058Y-105859245D01*
G75*
G02*
X80436417Y-105765222I-249809J343832D01*
G01*
X80436417Y-105765222D01*
G75*
G02*
X80530440Y-105171581I343832J249809D01*
G01*
X80530440Y-105171581D01*
G75*
G02*
X81124081Y-105265604I249809J-343832D01*
G01*
X81124081Y-105265604D01*
G75*
G02*
X81030058Y-105859245I-343832J-249809D01*
G01*
G37*
G36*
G01*
X81617843Y-106668261D02*
X81617843Y-106668261D01*
G75*
G02*
X81024202Y-106574238I-249809J343832D01*
G01*
X81024202Y-106574238D01*
G75*
G02*
X81118225Y-105980597I343832J249809D01*
G01*
X81118225Y-105980597D01*
G75*
G02*
X81711866Y-106074620I249809J-343832D01*
G01*
X81711866Y-106074620D01*
G75*
G02*
X81617843Y-106668261I-343832J-249809D01*
G01*
G37*
G36*
G01*
X80221041Y-106447030D02*
X80221041Y-106447030D01*
G75*
G02*
X79627400Y-106353007I-249809J343832D01*
G01*
X79627400Y-106353007D01*
G75*
G02*
X79721423Y-105759366I343832J249809D01*
G01*
X79721423Y-105759366D01*
G75*
G02*
X80315064Y-105853389I249809J-343832D01*
G01*
X80315064Y-105853389D01*
G75*
G02*
X80221041Y-106447030I-343832J-249809D01*
G01*
G37*
G36*
G01*
X80808826Y-107256047D02*
X80808826Y-107256047D01*
G75*
G02*
X80215185Y-107162024I-249809J343832D01*
G01*
X80215185Y-107162024D01*
G75*
G02*
X80309208Y-106568383I343832J249809D01*
G01*
X80309208Y-106568383D01*
G75*
G02*
X80902849Y-106662406I249809J-343832D01*
G01*
X80902849Y-106662406D01*
G75*
G02*
X80808826Y-107256047I-343832J-249809D01*
G01*
G37*
G36*
G01*
X79412024Y-107034815D02*
X79412024Y-107034815D01*
G75*
G02*
X78818383Y-106940792I-249809J343832D01*
G01*
X78818383Y-106940792D01*
G75*
G02*
X78912406Y-106347151I343832J249809D01*
G01*
X78912406Y-106347151D01*
G75*
G02*
X79506047Y-106441174I249809J-343832D01*
G01*
X79506047Y-106441174D01*
G75*
G02*
X79412024Y-107034815I-343832J-249809D01*
G01*
G37*
D13*
G36*
X80343641Y-107594023D02*
G01*
X79655977Y-108093641D01*
X79156359Y-107405977D01*
X79844023Y-106906359D01*
X80343641Y-107594023D01*
G37*
D14*
X100000000Y-120000000D03*
X100650000Y-120000000D03*
X99350000Y-120000000D03*
X101300000Y-120000000D03*
X98700000Y-120000000D03*
D15*
X103100000Y-120125000D03*
X96900000Y-120125000D03*
D16*
X101200000Y-122675000D03*
X98800000Y-122675000D03*
D17*
X103800000Y-122675000D03*
X96200000Y-122675000D03*
M02*
